<svg width="33" height="33" viewBox="0 0 33 33" fill="none" xmlns="http://www.w3.org/2000/svg">
<path d="M5.56875 28.875H4.125V20.7969L11 19.3875L14.9875 23.375C15.9042 22.8479 16.758 22.281 17.5491 21.6741C18.3402 21.0673 19.0676 20.4311 19.7313 19.7656C20.4417 19.0781 21.1063 18.3333 21.725 17.5312C22.3438 16.7292 22.9052 15.8812 23.4094 14.9875L19.4906 11.0344L20.7625 4.125H28.875V5.56875C28.875 8.45625 28.2563 11.2979 27.0187 14.0938C25.7812 16.8896 24.0167 19.4333 21.725 21.725C19.4333 24.0167 16.8841 25.7812 14.0772 27.0187C11.2704 28.2563 8.43425 28.875 5.56875 28.875Z" fill="#EEEEEE"/>
</svg>
