<svg width="30" height="30" viewBox="0 0 30 30" fill="none" xmlns="http://www.w3.org/2000/svg">
<path d="M6.22914 8.99344C7.73964 8.99344 8.96414 7.76894 8.96414 6.25844C8.96414 4.74794 7.73964 3.52344 6.22914 3.52344C4.71864 3.52344 3.49414 4.74794 3.49414 6.25844C3.49414 7.76894 4.71864 8.99344 6.22914 8.99344Z" fill="#EEEEEE" fill-opacity="0.5"/>
<path d="M11.5466 11.0703V26.2441H16.2579V18.7403C16.2579 16.7603 16.6304 14.8428 19.0854 14.8428C21.5066 14.8428 21.5366 17.1066 21.5366 18.8653V26.2453H26.2504V17.9241C26.2504 13.8366 25.3704 10.6953 20.5929 10.6953C18.2991 10.6953 16.7616 11.9541 16.1329 13.1453H16.0691V11.0703H11.5466ZM3.86914 11.0703H8.58789V26.2441H3.86914V11.0703Z" fill="#EEEEEE" fill-opacity="0.5"/>
</svg>
