<svg aria-hidden="true" style="width:40;height:40" xmlns="http://www.w3.org/2000/svg" overflow="hidden">
<path d="M13.8303 30.5H17.3966V20.5H13.8303V23.625H10.264V27.375H13.8303V30.5ZM19.7741 27.375H38.7943V23.625H19.7741V27.375ZM31.6617 20.5H35.228V17.375H38.7943V13.625H35.228V10.5H31.6617V20.5ZM10.264 17.375H29.2842V13.625H10.264V17.375ZM15.019 45.5V40.5H5.50895C4.20131 40.5 3.0819 40.0104 2.1507 39.0312C1.2195 38.0521 0.753906 36.875 0.753906 35.5V5.5C0.753906 4.125 1.2195 2.94792 2.1507 1.96875C3.0819 0.989583 4.20131 0.5 5.50895 0.5H43.5493C44.8569 0.5 45.9764 0.989583 46.9075 1.96875C47.8387 2.94792 48.3043 4.125 48.3043 5.5V35.5C48.3043 36.875 47.8387 38.0521 46.9075 39.0312C45.9764 40.0104 44.8569 40.5 43.5493 40.5H34.0392V45.5H15.019ZM5.50895 35.5H43.5493V5.5H5.50895V35.5Z" fill="#EEEEEE"/>
</svg>
