<svg width="30" height="30" viewBox="0 0 30 30" fill="none" xmlns="http://www.w3.org/2000/svg">
<path d="M6.22719 8.99344C7.73769 8.99344 8.96219 7.76894 8.96219 6.25844C8.96219 4.74794 7.73769 3.52344 6.22719 3.52344C4.71669 3.52344 3.49219 4.74794 3.49219 6.25844C3.49219 7.76894 4.71669 8.99344 6.22719 8.99344Z" fill="#EEEEEE" fill-opacity="0.5"/>
<path d="M11.5447 11.0703V26.2441H16.2559V18.7403C16.2559 16.7603 16.6284 14.8428 19.0834 14.8428C21.5047 14.8428 21.5347 17.1066 21.5347 18.8653V26.2453H26.2484V17.9241C26.2484 13.8366 25.3684 10.6953 20.5909 10.6953C18.2972 10.6953 16.7597 11.9541 16.1309 13.1453H16.0672V11.0703H11.5447ZM3.86719 11.0703H8.58594V26.2441H3.86719V11.0703Z" fill="#EEEEEE" fill-opacity="0.5"/>
</svg>
