<svg width="33" height="33" viewBox="0 0 33 33" fill="none" xmlns="http://www.w3.org/2000/svg">
<path d="M16.5 16.5C17.2563 16.5 17.9039 16.231 18.4429 15.6929C18.9819 15.1548 19.2509 14.5072 19.25 13.75C19.25 12.9937 18.981 12.3466 18.4429 11.8085C17.9048 11.2704 17.2572 11.0009 16.5 11C15.7437 11 15.0966 11.2695 14.5585 11.8085C14.0204 12.3475 13.7509 12.9947 13.75 13.75C13.75 14.5063 14.0195 15.1539 14.5585 15.6929C15.0975 16.2319 15.7447 16.5009 16.5 16.5ZM16.5 30.25C12.8104 27.1104 10.0549 24.1945 8.2335 21.5022C6.41208 18.81 5.50092 16.3176 5.5 14.025C5.5 10.5875 6.60596 7.84896 8.81788 5.80937C11.0298 3.76979 13.5905 2.75 16.5 2.75C19.4104 2.75 21.9716 3.76979 24.1835 5.80937C26.3954 7.84896 27.5009 10.5875 27.5 14.025C27.5 16.3167 26.5893 18.8091 24.7679 21.5022C22.9465 24.1954 20.1905 27.1113 16.5 30.25Z" fill="#EEEEEE"/>
</svg>
